/* XPM */
static const char * ts_xpm[] = {
"16 16 8 1",
" 	c None",
".	c #000000",
"+	c #99D9EA",
"@	c #FFC90E",
"#	c #FFFFFF",
"$	c #7F7F7F",
"%	c #22B14C",
"&	c #B5E61D",
"............... ",
".++@@+++++++##.$",
".+@@@@++++####.$",
".+@@@@+++#####.$",
".++@@++++###++.$",
".+++++++++++++.$",
".+++++++++++++.$",
".+++++++++++++.$",
".+++++++++%%%%.$",
".%%%%%%%%%%%&%.$",
".%%%%&%%%%%%%%.$",
".%%&%&%%&%%&%%.$",
".%%%%%%&%%%%%&.$",
".%&%%%%%%&%%%%.$",
"...............$",
" $$$$$$$$$$$$$$$"};
