/* XPM */
static const char * asm_xpm[] = {
"16 16 7 1",
" 	c None",
".	c #000000",
"+	c #FFFFFF",
"@	c #ED1C24",
"#	c #3F48CC",
"$	c #7F7F7F",
"%	c #A349A4",
"                ",
"  .......       ",
"  .+++++..      ",
"  .+@@@@.+.     ",
"  .+++++.++.    ",
"  .+####.....   ",
"  .+++++++++.   ",
"  .+#######+.   ",
" ...............",
"$.+%+++%%+%+++%.",
"$.%+%+%+++%%+%%.",
"$.%%%++%++%+%+%.",
"$.%+%+++%+%+++%.",
"$.%+%+%%++%+++%.",
"$...............",
"$$$$$$$$$$$$$$$ "};
