/* XPM */
static const char * asm_xpm[] = {
"16 16 6 1",
" 	c None",
".	c #000000",
"+	c #FFFFFF",
"@	c #ED1C24",
"#	c #3F48CC",
"$	c #FFF200",
"                ",
"  .......       ",
"  .+++++..      ",
"  .+@@@@.+.     ",
"  .+++++.++.    ",
"  .+####.....   ",
"  .+++++++++.   ",
"................",
".$$$$$$$$$$$$$$.",
".$##$$$##$#$$$#.",
".#$$#$#$$$##$##.",
".####$$#$$#$#$#.",
".#$$#$$$#$#$$$#.",
".#$$#$##$$#$$$#.",
".$$$$$$$$$$$$$$.",
"................"};
