/* XPM */
static const char * bin_xpm[] = {
"16 16 4 1",
" 	c None",
".	c #000000",
"+	c #FFFFFF",
"@	c #3F48CC",
"                ",
"  .......       ",
"  .+++++..      ",
"  .+++++.+.     ",
"  .+@+@@.++.    ",
"  .+@+@+.....   ",
"  .+@+@+@+@+.   ",
"  .+@+@@@+@+.   ",
"  .+++++++++.   ",
"  .+@+@+@@@+.   ",
"  .+@+@+@+@+.   ",
"  .+@+@+@+@+.   ",
"  .+@+@+@@@+.   ",
"  .+++++++++.   ",
"  ...........   ",
"                "};
