/* XPM */
static const char *chest_xpm[] = {
/* columns rows colors chars-per-pixel */
"32 32 8 1 ",
"  c black",
". c #482400",
"X c #484848",
"o c #904800",
"O c #FCB448",
"+ c #909090",
"@ c #D8D8D8",
"# c None",
/* pixels */
"################################",
"################################",
"########     ###################",
"######  @+XXX  #################",
"##### @+X        ###############",
"#### +X  o.  o..   #############",
"### +X o.  o..  oo.  ###########",
"## +X o. Oo.  oo..     #########",
"## + o. o.. Oo..  oo..   #######",
"## X . O.. Oo.. Oo..   +X  #####",
"# @ o. o. Oo.. Oo..  +X     ####",
"# @ . o.. o.. Oo.. +X  XXXX  ###",
"# +   o. Oo. Oo.. +X XX    X  ##",
"#  +X  . o.. oo. @X X  ...  X ##",
"# @   @  o. Oo.. + X .o..  X  ##",
"# @ + @@+   oo. @X Xo.o  XX + ##",
"# +    +X+   o. + X o  +X  XX ##",
"# @ . @X X ++   + X  +X  XX X ##",
"# +   + XX   X++X X+X  XX   X ##",
"# + o   X+ ++   X X  +X  .  X ##",
"# +  oO   .  ++X   +X  ...  X ##",
"# + o  OO  oo  +X X  ..oo   X ##",
"# +  oO  oO  o. X X .oo ..  X ##",
"# X++  OO  oo   X X . .oo.  X ##",
"##  X++  oO  o. X X .oo.  XXX ##",
"####  X++  oo   X X ..  XXX  ###",
"######  X++  o. X X   XXX  #####",
"########  X++   X X XXX  #######",
"##########  XX+ X XXX  #########",
"############  XXX X  ###########",
"##############     #############",
"################################"
};
