/* XPM */
static const char * dir_xpm[] = {
"16 16 4 1",
" 	c None",
".	c #000000",
"+	c #B97A57",
"@	c #EFE4B0",
"                ",
"                ",
"                ",
"  ....          ",
" .++++.         ",
" .............. ",
" .@@@@@@@@@@@@. ",
" .@@@@@@@@@@@@. ",
" .@@@@@@@@@@@@. ",
" .@@@@@@@@@@@@. ",
" .@@@@@@@@@@@@. ",
" .@@@@@@@@@@@@. ",
" .@@@@@@@@@@@@. ",
" .............. ",
"                ",
"                "};
