/* XPM */
static const char * unk_xpm[] = {
"16 16 5 1",
" 	c None",
".	c #000000",
"+	c #FFFFFF",
"@	c #ED1C24",
"#	c #7F7F7F",
"                ",
"  .......       ",
"  .+++++..      ",
"  .++@@@.+.     ",
"  .+@@@@.++.    ",
"  .+@@##.....   ",
"  .++##+@@#+.   ",
"  .++++@@#++.   ",
"  .+++@@#+++.   ",
"  .+++@@#+++.   ",
"  .++++##+++.   ",
"  .+++@@++++.   ",
"  .+++@@#+++.   ",
"  .++++##+++.   ",
"  ...........   ",
"                "};
